<?xml version="1.0" encoding="utf-8"?>
<!-- Generator: Adobe Illustrator 27.8.0, SVG Export Plug-In . SVG Version: 6.00 Build 0)  -->
<svg version="1.1" xmlns="http://www.w3.org/2000/svg" xmlns:xlink="http://www.w3.org/1999/xlink" x="0px" y="0px"
	 viewBox="0 0 367.8 75.4" style="enable-background:new 0 0 367.8 75.4;" xml:space="preserve">
<style type="text/css">
	.st0{font-family:'DINOT-Bold';}
	.st1{font-size:64px;}
	.st2{fill:#2B59FF;}
	.st3{fill:#FFFFFF;}
</style>
<g id="svg17" xmlns:sodipodi="http://sodipodi.sourceforge.net/DTD/sodipodi-0.dtd" xmlns:inkscape="http://www.inkscape.org/namespaces/inkscape" xmlns:svg="http://www.w3.org/2000/svg" sodipodi:docname="logo.svg">
	
		<sodipodi:namedview  bordercolor="#000000" borderopacity="0.25" id="namedview19" inkscape:deskcolor="#d1d1d1" inkscape:pagecheckerboard="0" inkscape:pageopacity="0.0" inkscape:showpageshadow="2" pagecolor="#ffffff">
		</sodipodi:namedview>
</g>
<g id="Layer_2">
	<g>
		<text transform="matrix(1 0 0 1 94.6342 61.5403)" class="st0 st1">AutoHunt</text>
	</g>
	<g>
		<circle class="st2" cx="46.2" cy="38.5" r="33"/>
	</g>
	<g>
		<path class="st3" d="M45.7,59c-11.3,0-20.5-9.2-20.5-20.5S34.5,18,45.7,18s20.5,9.2,20.5,20.5S57,59,45.7,59z M45.7,22
			c-9.1,0-16.5,7.4-16.5,16.5S36.7,55,45.7,55s16.5-7.4,16.5-16.5S54.8,22,45.7,22z"/>
	</g>
	<g>
		<path class="st3" d="M45.7,46.5c-4.2,0-7.6-3.4-7.6-7.6s3.4-7.6,7.6-7.6s7.6,3.4,7.6,7.6S50,46.5,45.7,46.5z M45.7,35.2
			c-2,0-3.6,1.6-3.6,3.6s1.6,3.6,3.6,3.6s3.6-1.6,3.6-3.6S47.8,35.2,45.7,35.2z"/>
	</g>
	<g>
		<path class="st2" d="M40.1,11.3H15.6c-1.6,0-2.9-1.3-2.9-2.9v0c0-1.6,1.3-2.9,2.9-2.9h24.5c1.6,0,2.9,1.3,2.9,2.9v0
			C42.9,10,41.7,11.3,40.1,11.3z"/>
	</g>
	<g>
		<path class="st2" d="M28.6,22.6H4c-1.6,0-2.9-1.3-2.9-2.9v0c0-1.6,1.3-2.9,2.9-2.9h24.5c1.6,0,2.9,1.3,2.9,2.9v0
			C31.4,21.3,30.1,22.6,28.6,22.6z"/>
	</g>
	<g>
		<path class="st2" d="M36.7,62.6H12.2c-1.6,0-2.9-1.3-2.9-2.9v0c0-1.6,1.3-2.9,2.9-2.9h24.5c1.6,0,2.9,1.3,2.9,2.9v0
			C39.5,61.3,38.3,62.6,36.7,62.6z"/>
	</g>
	<g>
		<path class="st2" d="M48.8,71.4h-44c-1.6,0-2.9-1.3-2.9-2.9v0c0-1.6,1.3-2.9,2.9-2.9h44c1.6,0,2.9,1.3,2.9,2.9v0
			C51.6,70.1,50.4,71.4,48.8,71.4z"/>
	</g>
	<g>
		<rect x="51.4" y="32.9" transform="matrix(0.9172 -0.3984 0.3984 0.9172 -8.9602 25.758)" class="st3" width="12.3" height="3"/>
	</g>
	<g>
		<rect x="32.5" y="28.3" transform="matrix(0.3177 -0.9482 0.9482 0.3177 -9.4426 55.7561)" class="st3" width="3" height="12.3"/>
	</g>
	<g>
		<rect x="31.9" y="46.4" transform="matrix(0.6843 -0.7292 0.7292 0.6843 -22.9192 42.844)" class="st3" width="12.3" height="3"/>
	</g>
	<g>
		
			<rect x="52.3" y="41.6" transform="matrix(0.7619 -0.6477 0.6477 0.7619 -18.1261 46.2284)" class="st3" width="3" height="12.3"/>
	</g>
	<g>
		<rect x="44.2" y="20" class="st3" width="3" height="13.1"/>
	</g>
</g>
</svg>
